<?xml version="1.0" encoding="utf-8"?>
<!-- Generator: Adobe Illustrator 27.5.0, SVG Export Plug-In . SVG Version: 6.00 Build 0)  -->
<svg version="1.1" xmlns="http://www.w3.org/2000/svg" xmlns:xlink="http://www.w3.org/1999/xlink" x="0px" y="0px"
	 viewBox="0 0 500 500" style="enable-background:new 0 0 500 500;" xml:space="preserve">
<g id="Background_Complete">
	<g>
		<g>
			<g>
				<path style="fill:#E0E0E0;" d="M168.964,34.741c1.468-0.887,3.03-1.559,4.642-2.017l0.956-4.595l7.763-0.136l1.117,4.558
					c1.627,0.401,3.212,1.018,4.71,1.853l3.923-2.572l5.585,5.393l-2.432,4.01c0.887,1.468,1.56,3.031,2.017,4.643l4.594,0.956
					l0.136,7.763l-4.558,1.117c-0.401,1.626-1.018,3.211-1.853,4.71l2.571,3.923l-5.392,5.586l-4.011-2.432
					c-1.468,0.887-3.031,1.559-4.642,2.017l-0.956,4.594l-7.762,0.136l-1.117-4.558c-1.626-0.401-3.212-1.018-4.71-1.853
					l-3.923,2.572l-5.585-5.393l2.432-4.011c-0.887-1.468-1.56-3.031-2.018-4.642l-4.594-0.956l-0.136-7.762l4.558-1.118
					c0.401-1.626,1.019-3.211,1.853-4.709l-2.571-3.923l5.392-5.585L168.964,34.741L168.964,34.741z M173.102,45.082
					c-3.195,3.309-3.102,8.582,0.207,11.777c3.309,3.195,8.582,3.102,11.776-0.207c3.195-3.309,3.102-8.582-0.207-11.777
					C181.569,41.68,176.296,41.773,173.102,45.082z"/>
			</g>
		</g>
	</g>
	<g>
		<g>
			<g>
				<path style="fill:#E0E0E0;" d="M170.804,292.279c0.846-0.512,1.747-0.899,2.677-1.163l0.551-2.65l4.477-0.078l0.644,2.628
					c0.938,0.231,1.852,0.587,2.716,1.069l2.262-1.483l3.221,3.11l-1.402,2.313c0.512,0.847,0.899,1.748,1.163,2.677l2.649,0.551
					l0.079,4.477l-2.628,0.644c-0.231,0.938-0.587,1.852-1.069,2.716l1.483,2.263l-3.11,3.221l-2.313-1.402
					c-0.847,0.512-1.748,0.899-2.677,1.163l-0.551,2.65l-4.477,0.078l-0.644-2.629c-0.938-0.231-1.852-0.587-2.716-1.069
					l-2.263,1.483l-3.221-3.11l1.402-2.313c-0.512-0.847-0.9-1.748-1.163-2.677l-2.649-0.551l-0.079-4.477l2.628-0.645
					c0.231-0.938,0.587-1.852,1.069-2.716l-1.483-2.263l3.11-3.221L170.804,292.279L170.804,292.279z M173.19,298.243
					c-1.843,1.909-1.789,4.949,0.119,6.792c1.909,1.843,4.949,1.789,6.792-0.119c1.842-1.909,1.789-4.949-0.119-6.792
					C178.073,296.281,175.033,296.335,173.19,298.243z"/>
			</g>
		</g>
	</g>
	<g>
		<g>
			<g>
				<path style="fill:#E0E0E0;" d="M73.284,59.427c0.578-0.349,1.193-0.614,1.827-0.794l0.376-1.809l3.056-0.054l0.44,1.794
					c0.64,0.158,1.265,0.401,1.854,0.729l1.544-1.012l2.199,2.123l-0.957,1.579c0.349,0.578,0.614,1.193,0.794,1.828l1.809,0.376
					l0.054,3.056l-1.794,0.44c-0.158,0.64-0.401,1.264-0.729,1.854l1.012,1.544l-2.123,2.199l-1.579-0.957
					c-0.578,0.349-1.193,0.614-1.828,0.794l-0.376,1.809l-3.056,0.054l-0.44-1.794c-0.64-0.158-1.264-0.401-1.854-0.729
					l-1.544,1.012l-2.199-2.123l0.957-1.579c-0.349-0.578-0.614-1.193-0.794-1.827l-1.809-0.376l-0.054-3.056l1.794-0.44
					c0.158-0.64,0.401-1.264,0.729-1.854l-1.012-1.544l2.123-2.199L73.284,59.427L73.284,59.427z M74.913,63.498
					c-1.258,1.303-1.221,3.378,0.081,4.636c1.303,1.258,3.378,1.221,4.636-0.082c1.257-1.303,1.221-3.378-0.081-4.636
					C78.246,62.159,76.17,62.195,74.913,63.498z"/>
			</g>
		</g>
	</g>
	<g>
		<g>
			<g>
				<path style="fill:#EBEBEB;" d="M222.556,53.03c1.142-0.69,2.358-1.213,3.612-1.57l0.744-3.575l6.04-0.106l0.869,3.546
					c1.266,0.312,2.499,0.792,3.665,1.442l3.053-2.001l4.346,4.196l-1.892,3.12c0.69,1.142,1.214,2.359,1.57,3.612l3.574,0.744
					l0.106,6.04l-3.546,0.869c-0.312,1.265-0.792,2.499-1.442,3.664l2.001,3.053l-4.196,4.346l-3.121-1.892
					c-1.142,0.69-2.358,1.213-3.612,1.569l-0.744,3.575l-6.04,0.106l-0.869-3.546c-1.265-0.312-2.499-0.792-3.664-1.442
					l-3.053,2.001l-4.346-4.196l1.892-3.12c-0.69-1.142-1.214-2.358-1.57-3.612l-3.575-0.744l-0.106-6.04l3.546-0.87
					c0.312-1.265,0.792-2.499,1.442-3.664l-2.001-3.053l4.196-4.346L222.556,53.03L222.556,53.03z M225.776,61.076
					c-2.486,2.575-2.414,6.677,0.161,9.163c2.575,2.486,6.677,2.414,9.163-0.161c2.486-2.575,2.414-6.677-0.161-9.163
					C232.364,58.429,228.262,58.501,225.776,61.076z"/>
			</g>
		</g>
	</g>
	<g>
		<g>
			<g>
				<path style="fill:#E0E0E0;" d="M382.207,202.095c1.466-0.886,3.027-1.558,4.637-2.015l0.955-4.59l7.755-0.136l1.116,4.553
					c1.625,0.4,3.209,1.017,4.705,1.851l3.919-2.569l5.58,5.388l-2.429,4.006c0.886,1.467,1.558,3.028,2.015,4.638l4.589,0.955
					l0.136,7.755l-4.553,1.116c-0.4,1.625-1.017,3.208-1.851,4.705l2.569,3.92l-5.387,5.58l-4.007-2.43
					c-1.466,0.886-3.028,1.558-4.638,2.015l-0.955,4.59l-7.755,0.136l-1.116-4.553c-1.625-0.4-3.208-1.017-4.705-1.851l-3.919,2.569
					l-5.58-5.387l2.429-4.007c-0.886-1.467-1.558-3.027-2.015-4.638l-4.59-0.955l-0.136-7.755l4.553-1.116
					c0.4-1.625,1.017-3.208,1.851-4.705l-2.569-3.919l5.387-5.58L382.207,202.095L382.207,202.095z M386.341,212.426
					c-3.192,3.306-3.099,8.573,0.207,11.765c3.306,3.192,8.573,3.099,11.765-0.207c3.191-3.306,3.099-8.573-0.207-11.765
					C394.799,209.027,389.532,209.12,386.341,212.426z"/>
			</g>
		</g>
	</g>
	<g>
		<g>
			<path style="fill:#E0E0E0;" d="M437.006,51.22c0-12.932-11.687-23.134-25.075-20.621c-8.421,1.58-15.132,8.458-16.607,16.898
				c-0.922,5.276,0.167,10.238,2.573,14.334h-0.012l0.06,0.079c0.805,1.357,1.814,2.328,2.834,3.754l12.195,16.154
				c1.517,2.01,4.537,2.01,6.054,0l11.992-15.888c0,0,2.238-2.669,3.05-4.041l0.043-0.057h-0.008
				C435.938,58.714,437.006,55.096,437.006,51.22z M416.002,60.364c-5.105,0-9.243-4.139-9.243-9.243
				c0-5.105,4.138-9.243,9.243-9.243c5.105,0,9.243,4.138,9.243,9.243C425.246,56.226,421.107,60.364,416.002,60.364z"/>
		</g>
	</g>
	<g>
		<g>
			<g>
				<g>
					<path style="fill:#EBEBEB;" d="M67.27,353.451c4.146-2.773,6.45-8.053,5.408-13.544c-1.37-7.192-7.947-11.984-14.692-10.703
						c-6.742,1.28-11.1,8.149-9.73,15.341c1.055,5.541,5.206,9.622,10.139,10.634c-18.224,6.484-13.399,26.723-13.399,26.723
						l44.437-8.44C89.432,373.463,86.428,352.638,67.27,353.451z"/>
				</g>
			</g>
		</g>
	</g>
	<g>
		<g>
			<g>
				<path style="fill:#EBEBEB;" d="M121.095,439.726l-9.147-2.254c0,0-1.892,7.68-9.908,5.852c-4.163-0.95-5.643-4.195-6.004-6.49
					c-0.419-2.665,0.566-5.343,2.477-7.248c2.182-2.176,6.155-3.663,12.052-1.058l5.082-20.625l-9.045-2.228l-2.977,12.081
					c0,0-13.494,0.154-16.938,14.134c-3.296,13.376,7.934,19.438,13.069,20.703C103.682,453.56,117.292,455.906,121.095,439.726z"/>
			</g>
			<g>
				
					<rect x="108.458" y="393.828" transform="matrix(-0.971 -0.2392 0.2392 -0.971 127.8115 811.9983)" style="fill:#EBEBEB;" width="9.454" height="8.83"/>
			</g>
		</g>
	</g>
</g>
<g id="Background_Simple" style="display:none;">
	<g style="display:inline;">
		<path style="fill:#F5F5F5;" d="M421.746,144.34l-2.315-3.815c-19.517-32.161-54.803-51.549-92.006-49.196
			c-4.782,0.302-9.544,0.95-14.242,1.955c-33.825,7.241-63.257,32.82-75.457,65.579c-7.175,19.266-9.179,41.449-22.795,56.742
			c-17.72,19.903-47.803,20.528-74.253,19.703c-26.449-0.825-56.553-0.121-74.187,19.86c-11.044,12.514-14.553,30.309-13.663,47.068
			c2.358,44.369,33.275,84.042,72.594,103.761c39.319,19.719,85.612,21.485,128.644,12.811
			c60.283-12.152,117.611-45.524,152.07-97.068C440.596,270.196,449.317,199.972,421.746,144.34z"/>
	</g>
</g>
<g id="Desk">
	<g>
		<g>
			<path d="M468.116,470.897c0,0.144-97.333,0.26-217.371,0.26c-120.08,0-217.392-0.116-217.392-0.26
				c0-0.144,97.312-0.26,217.392-0.26C370.783,470.637,468.116,470.753,468.116,470.897z"/>
		</g>
	</g>
</g>
<g id="Text">
	<g>
		<g>
			<path style="fill:#263238;" d="M58.017,219.201h20.874l-1.846,9.372h-37.63l1.491-7.455l22.649-17.749
				c5.609-4.473,7.313-7.1,7.313-10.366c0-3.266-2.485-5.467-7.313-5.467c-3.976,0-7.81,1.846-10.579,5.183l-7.739-5.609
				c3.976-5.467,11.431-9.088,20.021-9.088c10.508,0,17.395,5.609,17.395,13.348c0,5.893-2.698,10.863-11.431,17.608L58.017,219.201
				z"/>
			<path style="fill:#263238;" d="M128.662,218.136h-8.165l-2.059,10.437h-11.218l2.13-10.437H82.584l1.491-7.739l29.252-31.523
				h12.567L98.63,208.764h13.063l1.846-9.301h10.721l-1.846,9.301h8.164L128.662,218.136z"/>
			<path style="fill:#263238;" d="M161.464,168.791h10.366l-36.494,66.881h-10.295L161.464,168.791z"/>
			<path style="fill:#263238;" d="M208.82,178.873l-1.491,7.454l-26.554,42.245h-12.78l25.489-40.328h-16.117l-1.633,8.094h-10.224
				l3.479-17.466H208.82z"/>
		</g>
		<g>
			<path style="fill:#263238;" d="M34.771,267.776l2.908-5.518c2.646,1.678,5.703,2.572,8.686,2.572
				c2.833,0,4.473-0.895,4.473-2.312c0-3.504-12.674-1.565-12.674-9.767c0-5.629,4.809-9.319,12.525-9.319
				c3.69,0,7.045,0.783,9.394,2.236l-2.684,5.48c-2.05-1.305-4.585-1.976-7.157-1.976c-3.057,0-4.697,1.118-4.697,2.534
				c-0.037,3.579,12.674,1.528,12.674,9.581c0,5.591-4.92,9.281-12.563,9.281C41.183,270.571,37.119,269.378,34.771,267.776z"/>
			<path style="fill:#263238;" d="M71.373,249.658l-0.857,4.399h11.593l-1.081,5.517h-11.63l-0.932,4.772h13.681l-1.193,5.703H60.04
				l5.219-26.094h20.428l-1.156,5.704H71.373z"/>
			<path style="fill:#263238;" d="M104.731,262.221l4.436,7.828h-7.717l-3.876-6.934h-3.728l-1.379,6.934h-7.381l5.219-26.094
				h11.146c6.673,0,10.512,3.094,10.512,8.313C111.962,257.077,109.279,260.656,104.731,262.221z M100.407,249.771H96.53
				l-1.565,7.642h4.398c3.243,0,5.145-1.565,5.145-4.437C104.507,250.777,102.941,249.771,100.407,249.771z"/>
			<path style="fill:#263238;" d="M144.314,243.955l-16.365,26.094h-7.269l-5.927-26.094h7.567l3.728,16.961l10.661-16.961H144.314z
				"/>
			<path style="fill:#263238;" d="M145.875,243.955h7.381l-5.219,26.094h-7.381L145.875,243.955z"/>
			<path style="fill:#263238;" d="M154.408,259.089c0-9.058,6.672-15.656,16.365-15.656c4.809,0,8.723,1.752,10.586,4.92
				l-5.331,4.25c-1.23-1.977-3.131-3.058-5.741-3.058c-5.069,0-8.424,3.915-8.424,9.059c0,3.504,2.386,5.853,6.374,5.853
				c2.349,0,4.511-0.895,6.374-3.02l4.361,4.287c-2.945,3.541-6.784,4.846-11.444,4.846
				C159.515,270.571,154.408,265.911,154.408,259.089z"/>
			<path style="fill:#263238;" d="M192.128,249.658l-0.857,4.399h11.593l-1.081,5.517h-11.63l-0.932,4.772H202.9l-1.193,5.703
				h-20.913l5.219-26.094h20.428l-1.156,5.704H192.128z"/>
		</g>
		<g>
			<g>
				<path style="fill:#FF725E;" d="M63.152,164.161H48.583c0-20.283,8.207-41.022,22.517-56.898
					c15.063-16.711,34.607-25.914,55.029-25.914c41.673,0,70.778,30.42,70.778,73.975h-14.569c0-35.533-22.589-59.406-56.209-59.406
					C93.169,95.918,63.152,128.445,63.152,164.161z"/>
			</g>
		</g>
		<g>
			<g>
				<g>
					<g>
						<path style="fill:#263238;" d="M71.142,160.108c2.328,0.038,4.214,0.234,4.213,0.438c-0.002,0.204-1.89,0.371-4.219,0.374
							c-2.327,0.003-4.213-0.193-4.211-0.438C66.926,160.237,68.815,160.07,71.142,160.108z"/>
					</g>
				</g>
			</g>
			<g>
				<g>
					<g>
						<path style="fill:#263238;" d="M81.198,128.173c1.949,1.275,3.35,2.59,3.13,2.938c-0.22,0.348-2.008-0.357-3.994-1.573
							c-1.984-1.216-3.386-2.531-3.128-2.937C77.462,126.194,79.251,126.898,81.198,128.173z"/>
					</g>
				</g>
			</g>
			<g>
				<g>
					<g>
						<path style="fill:#263238;" d="M106.405,106.16c0.943,2.129,1.411,3.993,1.045,4.163c-0.366,0.17-1.489-1.389-2.509-3.482
							c-1.019-2.092-1.487-3.956-1.044-4.162C104.339,102.473,105.463,104.033,106.405,106.16z"/>
					</g>
				</g>
			</g>
			<g>
				<g>
					<g>
						<path style="fill:#263238;" d="M139.598,103.543c-0.58,2.255-1.368,4.008-1.759,3.915c-0.392-0.093-0.307-2.013,0.188-4.288
							c0.495-2.274,1.283-4.027,1.759-3.914C140.262,99.369,140.178,101.29,139.598,103.543z"/>
					</g>
				</g>
			</g>
			<g>
				<g>
					<g>
						<path style="fill:#263238;" d="M166.722,122.595c-1.94,1.288-3.696,2.068-3.923,1.741c-0.227-0.327,1.119-1.699,3.006-3.064
							c1.885-1.364,3.642-2.144,3.922-1.74C170.007,119.936,168.661,121.308,166.722,122.595z"/>
					</g>
				</g>
			</g>
			<g>
				<g>
					<g>
						<path style="fill:#263238;" d="M175.654,154.015c-2.329-0.003-4.217-0.173-4.218-0.38c-0.001-0.207,1.885-0.4,4.213-0.43
							c2.327-0.03,4.215,0.14,4.217,0.38C179.868,153.825,177.981,154.018,175.654,154.015z"/>
					</g>
				</g>
			</g>
		</g>
		<g>
			<g>
				<path style="fill:#FF725E;" d="M122.153,158.335c-0.698,0-1.399-0.225-1.985-0.681l-24.484-19.016
					c-1.412-1.097-1.668-3.131-0.571-4.543c1.096-1.411,3.129-1.668,4.543-0.571l22.309,17.328l30.856-28.329
					c1.309-1.218,3.357-1.143,4.576,0.167c1.217,1.31,1.143,3.358-0.167,4.576l-32.872,30.203
					C123.74,158.043,122.947,158.335,122.153,158.335z"/>
			</g>
		</g>
		<g>
			<g>
				<path style="fill:#FF725E;" d="M138.757,71.682h-28.075c-0.438,0-0.792-0.355-0.792-0.792V60.725
					c0-0.438,0.355-0.792,0.792-0.792h28.075c0.438,0,0.792,0.355,0.792,0.792V70.89C139.549,71.327,139.195,71.682,138.757,71.682z
					"/>
			</g>
		</g>
		<g>
			<g>
				<rect x="117.054" y="65.807" style="fill:#FF725E;" width="15.331" height="13.898"/>
			</g>
		</g>
		<g>
			<g>
				<path style="fill:#FF725E;" d="M71.322,103.871l-11.516,14.262c-0.448,0.555-1.262,0.642-1.817,0.194l-7.87-6.355
					c-0.555-0.448-0.642-1.262-0.194-1.817l11.516-14.262c0.448-0.555,1.262-0.642,1.817-0.194l7.871,6.355
					C71.684,102.503,71.77,103.316,71.322,103.871z"/>
			</g>
		</g>
		<g>
			<g>
				<g>
					<path style="fill:#263238;" d="M138.761,71.682c0,0.164-6.287,0.298-14.04,0.298c-7.756,0-14.042-0.133-14.042-0.298
						c0-0.164,6.286-0.298,14.042-0.298C132.474,71.384,138.761,71.518,138.761,71.682z"/>
				</g>
			</g>
		</g>
		<g>
			<g>
				<g>
					<path style="fill:#263238;" d="M61.18,115.677c-0.157,0.179-2.277-1.439-4.897-3.409c-2.617-1.976-4.756-3.568-4.627-3.769
						c0.122-0.192,2.489,1.097,5.135,3.095C59.439,113.587,61.331,115.507,61.18,115.677z"/>
				</g>
			</g>
		</g>
		<g>
			<g>
				<g>
					<path style="fill:#263238;" d="M63.616,112.088c-0.157,0.179-2.277-1.439-4.897-3.409c-2.617-1.976-4.756-3.568-4.627-3.769
						c0.122-0.192,2.489,1.097,5.135,3.095C61.875,109.998,63.767,111.918,63.616,112.088z"/>
				</g>
			</g>
		</g>
		<g>
			<g>
				<g>
					<path style="fill:#263238;" d="M66.614,109.08c-0.157,0.179-2.277-1.439-4.897-3.409c-2.617-1.976-4.756-3.568-4.627-3.769
						c0.122-0.192,2.489,1.097,5.135,3.095C64.873,106.99,66.766,108.91,66.614,109.08z"/>
				</g>
			</g>
		</g>
		<g>
			<g>
				<g>
					<path style="fill:#263238;" d="M69.512,105.491c-0.157,0.179-2.277-1.439-4.897-3.409c-2.617-1.976-4.756-3.568-4.627-3.769
						c0.122-0.192,2.489,1.097,5.135,3.095C67.771,103.401,69.664,105.321,69.512,105.491z"/>
				</g>
			</g>
		</g>
		<g>
			<g>
				<path style="fill:#FF725E;" d="M185.839,108.998l-12.395-13.505c-0.482-0.526-0.447-1.343,0.078-1.825l7.453-6.84
					c0.526-0.482,1.343-0.447,1.825,0.078l12.395,13.505c0.482,0.526,0.447,1.343-0.078,1.825l-7.453,6.84
					C187.139,109.559,186.321,109.524,185.839,108.998z"/>
			</g>
		</g>
		<g>
			<g>
				<g>
					<path style="fill:#263238;" d="M175.669,97.217c-0.154-0.182,1.761-2.039,4.098-4.337c2.343-2.295,4.234-4.174,4.413-4.017
						c0.172,0.149-1.454,2.298-3.823,4.618C177.994,95.805,175.815,97.392,175.669,97.217z"/>
				</g>
			</g>
		</g>
		<g>
			<g>
				<g>
					<path style="fill:#263238;" d="M178.857,100.159c-0.154-0.182,1.761-2.039,4.098-4.337c2.343-2.295,4.235-4.174,4.414-4.017
						c0.172,0.149-1.455,2.298-3.823,4.618C181.182,98.747,179.002,100.333,178.857,100.159z"/>
				</g>
			</g>
		</g>
		<g>
			<g>
				<g>
					<path style="fill:#263238;" d="M181.386,103.57c-0.154-0.182,1.761-2.039,4.098-4.337c2.343-2.295,4.235-4.174,4.413-4.017
						c0.172,0.149-1.454,2.298-3.823,4.618C183.712,102.158,181.532,103.745,181.386,103.57z"/>
				</g>
			</g>
		</g>
		<g>
			<g>
				<g>
					<path style="fill:#263238;" d="M184.505,106.968c-0.154-0.182,1.761-2.039,4.098-4.337c2.343-2.295,4.234-4.174,4.413-4.017
						c0.172,0.149-1.454,2.298-3.823,4.618C186.831,105.557,184.651,107.143,184.505,106.968z"/>
				</g>
			</g>
		</g>
		<g>
			<g>
				<g>
					<path style="fill:#263238;" d="M113.834,71.668c-0.233,0-0.422-2.594-0.422-5.793c0-3.2,0.189-5.793,0.422-5.793
						c0.233,0,0.422,2.593,0.422,5.793C114.255,69.074,114.066,71.668,113.834,71.668z"/>
				</g>
			</g>
		</g>
		<g>
			<g>
				<g>
					<path style="fill:#263238;" d="M119.328,71.668c-0.233,0-0.422-2.594-0.422-5.793c0-3.2,0.189-5.793,0.422-5.793
						c0.233,0,0.422,2.593,0.422,5.793C119.75,69.074,119.561,71.668,119.328,71.668z"/>
				</g>
			</g>
		</g>
		<g>
			<g>
				<g>
					<path style="fill:#263238;" d="M124.823,71.668c-0.233,0-0.422-2.594-0.422-5.793c0-3.2,0.189-5.793,0.422-5.793
						c0.233,0,0.422,2.593,0.422,5.793C125.244,69.074,125.055,71.668,124.823,71.668z"/>
				</g>
			</g>
		</g>
		<g>
			<g>
				<g>
					<path style="fill:#263238;" d="M130.317,71.668c-0.233,0-0.422-2.594-0.422-5.793c0-3.2,0.189-5.793,0.422-5.793
						c0.233,0,0.421,2.593,0.421,5.793C130.738,69.074,130.55,71.668,130.317,71.668z"/>
				</g>
			</g>
		</g>
		<g>
			<g>
				<g>
					<path style="fill:#263238;" d="M135.811,71.668c-0.233,0-0.422-2.594-0.422-5.793c0-3.2,0.189-5.793,0.422-5.793
						c0.233,0,0.421,2.593,0.421,5.793C136.233,69.074,136.044,71.668,135.811,71.668z"/>
				</g>
			</g>
		</g>
		<g>
			<g>
				<g>
					
						<ellipse transform="matrix(0.7071 -0.7071 0.7071 0.7071 -72.8823 132.0055)" style="fill:#FF725E;" cx="122.904" cy="153.979" rx="7.339" ry="7.339"/>
				</g>
			</g>
			<g>
				<g>
					<g>
						<path style="fill:#263238;" d="M130.242,153.98c-0.074,0.003-0.061-0.654-0.371-1.756c-0.307-1.082-1.055-2.659-2.688-3.866
							c-1.578-1.21-4.165-1.881-6.661-0.945c-2.476,0.859-4.609,3.493-4.581,6.566c-0.028,3.074,2.105,5.709,4.581,6.568
							c2.496,0.936,5.083,0.265,6.661-0.945c1.633-1.207,2.381-2.784,2.688-3.866C130.181,154.633,130.168,153.976,130.242,153.98
							c0.026,0,0.043,0.161,0.052,0.472c0.015,0.31-0.016,0.773-0.14,1.355c-0.231,1.146-0.938,2.862-2.649,4.217
							c-1.652,1.357-4.459,2.165-7.22,1.174c-2.736-0.903-5.13-3.81-5.097-7.219c-0.032-3.408,2.361-6.314,5.097-7.217
							c2.761-0.991,5.567-0.183,7.22,1.174c1.712,1.355,2.419,3.071,2.65,4.217c0.123,0.581,0.154,1.045,0.14,1.355
							C130.286,153.818,130.268,153.98,130.242,153.98z"/>
					</g>
				</g>
			</g>
		</g>
	</g>
</g>
<g id="Speech_Bubble">
	<g>
		<g>
			<g>
				<g>
					<g>
						<g>
							<g>
								<g>
									<g>
										<g>
											<g>
												<g>
													<g>
														<g>
															<path style="fill:#FFFFFF;" d="M381.265,179.142l12.545-1.983c5.872,4.734,13.083,7.953,21.113,8.969
																c23.092,2.919,44.181-13.46,47.104-36.583c2.923-23.124-13.426-44.236-36.518-47.156
																c-23.091-2.919-44.181,13.46-47.104,36.584c-1.221,9.656,0.928,18.955,5.516,26.731l-0.017-0.017L381.265,179.142z"
																/>
														</g>
														<g>
															<g>
																<path style="fill:#263238;" d="M381.265,179.142c0,0,0.043-0.279,0.148-0.851c0.11-0.591,0.268-1.443,0.477-2.561
																	c0.435-2.297,1.073-5.673,1.905-10.066c0.011-0.061,0.07-0.1,0.13-0.089c0.022,0.004,0.043,0.016,0.058,0.031
																	l0.017,0.016l-0.175,0.136c-2.767-4.667-5.558-11.434-5.896-19.884c-0.09-2.102-0.01-4.294,0.252-6.544
																	c0.372-2.231,0.668-4.569,1.419-6.874c1.328-4.643,3.547-9.366,6.793-13.683c3.233-4.316,7.486-8.216,12.574-11.177
																	c5.078-2.964,10.995-4.973,17.272-5.582c6.271-0.644,12.884,0.227,19.089,2.607
																	c6.184,2.389,12.054,6.219,16.579,11.472l1.705,1.998c0.529,0.694,1.009,1.423,1.514,2.131
																	c1.061,1.384,1.821,2.95,2.692,4.434c0.44,0.741,0.726,1.558,1.094,2.331c0.328,0.79,0.743,1.545,0.997,2.359
																	c0.506,1.626,1.171,3.198,1.471,4.861c1.584,6.552,1.552,13.297,0.154,19.523c-1.426,6.23-4.26,11.894-7.922,16.575
																	c-3.665,4.692-8.162,8.402-12.925,11.033c-4.767,2.641-9.792,4.199-14.607,4.867
																	c-2.408,0.395-4.773,0.39-7.047,0.414c-2.268-0.187-4.467-0.274-6.536-0.705c-8.332-1.56-14.607-5.295-18.754-8.673
																	l0.084,0.023c-4.086,0.617-7.232,1.092-9.377,1.415c-1.042,0.154-1.837,0.272-2.39,0.353
																	C381.526,179.112,381.265,179.142,381.265,179.142s0.288-0.057,0.833-0.149c0.558-0.094,1.361-0.229,2.412-0.406
																	c2.123-0.351,5.238-0.866,9.283-1.535c0.031-0.005,0.062,0.005,0.085,0.023c4.154,3.327,10.409,6.996,18.68,8.507
																	c2.054,0.419,4.237,0.495,6.485,0.673c2.255-0.033,4.598-0.036,6.982-0.436c4.769-0.678,9.739-2.235,14.45-4.861
																	c4.708-2.615,9.149-6.295,12.765-10.941c3.613-4.636,6.405-10.237,7.808-16.396c1.375-6.156,1.4-12.82-0.168-19.29
																	c-0.297-1.643-0.956-3.195-1.455-4.801c-0.25-0.805-0.661-1.549-0.986-2.33c-0.365-0.763-0.646-1.57-1.082-2.302
																	c-0.862-1.465-1.611-3.013-2.66-4.379c-0.499-0.699-0.974-1.419-1.496-2.105l-1.685-1.973
																	c-4.469-5.19-10.266-8.972-16.372-11.336c-6.127-2.354-12.662-3.222-18.859-2.591
																	c-6.204,0.595-12.055,2.572-17.081,5.494c-5.037,2.918-9.252,6.768-12.462,11.031
																	c-3.222,4.265-5.433,8.934-6.763,13.529c-0.751,2.282-1.052,4.597-1.43,6.808c-0.268,2.23-0.357,4.403-0.276,6.488
																	c0.298,8.382,3.03,15.119,5.744,19.784c0.032,0.053,0.014,0.122-0.039,0.153c-0.044,0.026-0.101,0.018-0.136-0.017
																	l-0.017-0.017l0.188-0.058c-0.883,4.349-1.562,7.69-2.024,9.964c-0.232,1.127-0.409,1.986-0.532,2.582
																	C381.337,178.835,381.265,179.142,381.265,179.142z"/>
															</g>
														</g>
													</g>
												</g>
											</g>
										</g>
									</g>
								</g>
							</g>
						</g>
					</g>
				</g>
			</g>
		</g>
		<g>
			<g>
				<g>
					<g>
						<g>
							<g>
								<g>
									<g>
										<g>
											<g>
												<g>
													<path style="fill:#263238;" d="M433.156,145.477c0-2.368,1.919-4.287,4.286-4.287c2.368,0,4.287,1.919,4.287,4.287
														c0,2.367-1.919,4.286-4.287,4.286C435.076,149.763,433.156,147.844,433.156,145.477z"/>
												</g>
											</g>
										</g>
									</g>
								</g>
							</g>
						</g>
					</g>
				</g>
			</g>
			<g>
				<g>
					<g>
						<g>
							<g>
								<g>
									<g>
										<g>
											<g>
												<g>
													<path style="fill:#263238;" d="M416.002,145.477c0-2.368,1.919-4.287,4.286-4.287c2.368,0,4.287,1.919,4.287,4.287
														c0,2.367-1.919,4.286-4.287,4.286C417.922,149.763,416.002,147.844,416.002,145.477z"/>
												</g>
											</g>
										</g>
									</g>
								</g>
							</g>
						</g>
					</g>
				</g>
			</g>
			<g>
				<g>
					<g>
						<g>
							<g>
								<g>
									<g>
										<g>
											<g>
												<g>
													<path style="fill:#263238;" d="M398.892,147.62c-1.184-2.05-0.481-4.672,1.569-5.855
														c2.05-1.184,4.672-0.481,5.855,1.569c1.183,2.05,0.481,4.672-1.569,5.856
														C402.698,150.373,400.076,149.67,398.892,147.62z"/>
												</g>
											</g>
										</g>
									</g>
								</g>
							</g>
						</g>
					</g>
				</g>
			</g>
		</g>
	</g>
</g>
<g id="Character_00000079464521700476441970000011308777851247567523_">
	<g>
		<g>
			<g>
				<path style="fill:#FF9A6C;" d="M99.294,299.001c-2.638-1.252-7.065-3.858-9.8-4.882s-5.801-1.507-8.571-0.581
					c-1.619,0.542-3.226,1.827-3.237,3.533l10.753,7.884l10.855-2.857V299.001z"/>
			</g>
			<g>
				<path style="fill:#FFBF9D;" d="M87.532,298.89c0,0-19.317-4.186-22.495-5.844c-3.179-1.658-20.047-10.1-22.844-10.1
					c-2.797,0-5.213,0.763-5.722,3.56l3.674,2.856l0.467,1.459l6.28,3.271l1.15,2.109l15.978,8.538c0,0,16.784,8.519,19.581,9.028
					c2.797,0.509,16.784,1.653,22.76,6.739l24-9.85c0,0-6.935-9.849-12.268-12.27c-4.759-2.16-12.749-2.165-18.344,0.124
					L87.532,298.89z"/>
			</g>
			<g>
				<path style="fill:#FFBF9D;" d="M103.593,315.034c0,0,30.55,66.619,35.466,79.962c0,0,34.151-5.611,35.321-24.571l-44.02-59.992
					L103.593,315.034z"/>
			</g>
			<g>
				<g>
					<path style="fill:#FF9A6C;" d="M75.216,300.397c-0.002,0.018-0.114,0.015-0.327-0.008c-0.217-0.012-0.524-0.082-0.919-0.185
						c-0.784-0.219-1.88-0.65-3.18-1.284c-1.303-0.629-2.809-1.458-4.47-2.387c-0.832-0.462-1.701-0.954-2.614-1.428
						c-0.902-0.477-1.896-0.872-2.903-1.314c-2.013-0.868-3.954-1.629-5.78-2.102c-1.811-0.449-3.552-0.792-4.862-0.353
						c-1.318,0.453-1.908,1.58-2.243,2.266c-0.341,0.72-0.46,1.154-0.51,1.138c-0.017-0.005,0-0.116,0.049-0.324
						c0.043-0.21,0.13-0.513,0.275-0.894c0.148-0.379,0.355-0.842,0.71-1.316c0.346-0.474,0.88-0.952,1.596-1.216
						c0.712-0.278,1.552-0.308,2.409-0.237c0.861,0.076,1.76,0.241,2.695,0.472c1.871,0.458,3.847,1.217,5.867,2.088
						c1.004,0.44,2.006,0.843,2.934,1.34c0.923,0.488,1.789,0.989,2.615,1.463c1.649,0.953,3.129,1.811,4.4,2.476
						c1.268,0.67,2.325,1.146,3.076,1.419C74.782,300.287,75.223,300.346,75.216,300.397z"/>
				</g>
			</g>
			<g>
				<g>
					<path style="fill:#FF9A6C;" d="M56.795,290.821c-0.021,0.059-1.078-0.235-2.704-0.937c-1.607-0.727-3.811-1.748-6.347-2.535
						c-1.25-0.379-2.525-0.405-3.652-0.312c-1.125,0.092-2.068,0.54-2.577,1.2c-0.512,0.658-0.659,1.365-0.758,1.833
						c-0.066,0.479-0.106,0.752-0.145,0.751c-0.033,0-0.062-0.273-0.057-0.775c0.042-0.491,0.129-1.255,0.666-2.033
						c0.278-0.374,0.667-0.731,1.159-0.982c0.492-0.247,1.06-0.396,1.655-0.471c1.181-0.126,2.518-0.111,3.85,0.288
						c2.601,0.806,4.802,1.896,6.36,2.702C55.816,290.329,56.824,290.745,56.795,290.821z"/>
				</g>
			</g>
			<g>
				<g>
					<path style="fill:#FF9A6C;" d="M104.953,297.011c0.011,0.034-0.268,0.155-0.784,0.343c-0.514,0.194-1.274,0.429-2.224,0.679
						c-1.898,0.504-4.586,0.997-7.589,1.131c-3.004,0.128-5.725-0.129-7.66-0.466c-0.968-0.167-1.746-0.335-2.275-0.483
						c-0.53-0.143-0.819-0.239-0.811-0.274c0.018-0.082,1.206,0.154,3.139,0.393c1.932,0.241,4.619,0.436,7.585,0.31
						c2.964-0.133,5.624-0.561,7.527-0.969C103.764,297.269,104.927,296.931,104.953,297.011z"/>
				</g>
			</g>
		</g>
		<g>
			<g>
				<path style="fill:#FF725E;" d="M389.444,257.452l-44.493-9.2l-10.936-8.25l-58.707,11.321
					c-0.936,1.716-10.452,14.965-10.452,14.965l-23.115,7.853c-9.886,2.656-18.703,8.222-25.085,16.018
					c-4.877,5.958-10.314,14.184-14.967,25.102c-10.401,24.406-25.413,52.608-25.413,52.608l-9.411-15.155l-39.654,18.671
					c0,0,23.23,46.837,30.921,53.524c8.549,7.433,28.203,8.289,41.794-5.573c8.193-8.356,31.865-41.401,36.795-49.672L244,404.258
					l6.734,39.476l-10.881,27.163h158.798l-6.57-25.673c0,0,6.473-66.938,8.258-79.39
					C404.553,336.445,389.444,257.452,389.444,257.452z"/>
			</g>
			<g>
				<path style="fill:#FF725E;" d="M389.444,257.452c0,0,31.8,8.922,38.799,40.525c4.242,19.154,18.643,73.739,23.707,118.684
					c3.01,26.717,2.917,51.411,3.01,54.236h-48.801l-20.686-204.525L389.444,257.452z"/>
			</g>
			<g>
				<g>
					<path d="M307.884,284.594c0.011,0.006-0.035,0.118-0.134,0.329c-0.122,0.248-0.271,0.551-0.452,0.921
						c-0.395,0.805-0.966,1.987-1.648,3.503c-1.404,3.012-3.068,7.456-5.744,12.423l-0.137,0.253l-0.221-0.189
						c-3.297-2.81-6.882-6.19-10.581-9.842c-6.544-6.498-12.285-12.55-16.531-16.841c-2.096-2.107-3.807-3.827-5.041-5.067
						c-0.568-0.565-1.026-1.02-1.379-1.371c-0.311-0.318-0.469-0.491-0.457-0.504c0.012-0.013,0.194,0.134,0.528,0.427
						c0.37,0.333,0.85,0.765,1.447,1.301c1.239,1.148,3.014,2.83,5.161,4.954c4.316,4.227,10.101,10.241,16.637,16.731
						c3.694,3.648,7.257,7.033,10.519,9.856l-0.358,0.065c2.691-4.904,4.42-9.329,5.9-12.314c0.721-1.503,1.334-2.668,1.771-3.453
						c0.208-0.357,0.378-0.649,0.517-0.888C307.805,284.687,307.873,284.587,307.884,284.594z"/>
				</g>
			</g>
			<g>
				<g>
					<path d="M345.624,249.376c0.018,0.003-0.015,0.244-0.095,0.7c-0.095,0.507-0.218,1.168-0.372,1.992
						c-0.361,1.722-0.963,4.197-1.82,7.224c-1.724,6.051-4.523,14.283-7.961,23.239c-1.823,4.741-3.623,9.216-5.305,13.191
						l-0.129,0.304l-0.248-0.219c-4.532-3.997-8.591-7.146-11.344-9.492c-1.385-1.164-2.464-2.103-3.187-2.762
						c-0.331-0.309-0.6-0.56-0.818-0.763c-0.182-0.177-0.272-0.273-0.263-0.283c0.009-0.01,0.116,0.067,0.315,0.225
						c0.231,0.188,0.516,0.421,0.866,0.707c0.803,0.653,1.902,1.545,3.27,2.656c2.803,2.281,6.898,5.373,11.478,9.358l-0.376,0.085
						c1.651-3.978,3.435-8.457,5.256-13.193c3.434-8.947,6.284-17.145,8.094-23.156c0.9-3.007,1.554-5.461,1.975-7.165
						c0.193-0.814,0.348-1.467,0.467-1.967C345.539,249.607,345.606,249.373,345.624,249.376z"/>
				</g>
			</g>
			<g>
				<g>
					<path d="M242.751,399.832c-0.009,0.003-0.038-0.074-0.088-0.227c-0.056-0.183-0.125-0.406-0.208-0.68
						c-0.184-0.643-0.436-1.521-0.753-2.631c-0.339-1.14-0.674-2.555-1.074-4.195c-0.418-1.637-0.828-3.515-1.26-5.596
						c-1.776-8.313-3.555-19.942-4.66-32.864c-1.126-12.926-1.375-24.679-1.32-33.174c0.035-4.249,0.116-7.686,0.234-10.059
						c0.057-1.153,0.102-2.065,0.134-2.732c0.019-0.286,0.035-0.519,0.048-0.71c0.014-0.16,0.025-0.241,0.034-0.241
						c0.009,0,0.015,0.083,0.019,0.243c0.001,0.191,0.002,0.425,0.004,0.712c-0.009,0.668-0.021,1.581-0.037,2.734
						c-0.055,2.373-0.081,5.809-0.068,10.054c0.039,8.488,0.347,20.221,1.471,33.129c1.104,12.903,2.822,24.517,4.502,32.835
						c0.408,2.082,0.792,3.963,1.183,5.603c0.372,1.644,0.678,3.064,0.987,4.21c0.278,1.12,0.497,2.005,0.658,2.654
						c0.064,0.28,0.116,0.507,0.159,0.694C242.747,399.748,242.76,399.83,242.751,399.832z"/>
				</g>
			</g>
			<g>
				<g>
					<path d="M392.081,292.515c0.008-0.003,0.054,0.089,0.137,0.273c0.091,0.212,0.207,0.483,0.353,0.822
						c0.314,0.761,0.753,1.826,1.313,3.182c0.277,0.694,0.607,1.458,0.926,2.309c0.293,0.864,0.61,1.8,0.95,2.803
						c0.34,1.008,0.703,2.085,1.088,3.225c0.318,1.163,0.654,2.392,1.006,3.681c2.977,10.294,4.491,25.177,3.632,41.471
						c-0.879,16.301-2.779,30.951-3.958,41.564c-0.612,5.278-1.108,9.562-1.456,12.566c-0.177,1.455-0.316,2.598-0.415,3.414
						c-0.05,0.366-0.09,0.658-0.121,0.887c-0.03,0.199-0.05,0.301-0.059,0.3c-0.009-0.001-0.007-0.104,0.006-0.306
						c0.018-0.23,0.041-0.524,0.069-0.892c0.076-0.819,0.182-1.966,0.317-3.425c0.282-2.974,0.722-7.274,1.292-12.585
						c1.086-10.624,2.927-25.28,3.804-41.548c0.855-16.261-0.593-31.069-3.468-41.353c-0.339-1.288-0.661-2.516-0.967-3.679
						c-0.37-1.141-0.72-2.219-1.047-3.228c-0.325-1.006-0.628-1.945-0.908-2.811c-0.305-0.855-0.619-1.623-0.882-2.321
						c-0.52-1.369-0.928-2.446-1.22-3.214c-0.126-0.348-0.227-0.625-0.305-0.841C392.103,292.618,392.073,292.518,392.081,292.515z"
						/>
				</g>
			</g>
			<g>
				<g>
					<path d="M176.504,401.934c-0.144,0.001-0.311-7.625-0.374-17.03c-0.063-9.409,0.003-17.034,0.147-17.035
						c0.144-0.001,0.311,7.623,0.374,17.031C176.714,394.306,176.648,401.933,176.504,401.934z"/>
				</g>
			</g>
			<g>
				<g>
					<path d="M320.804,448.08c-0.009-0.001,0.001-0.143,0.029-0.419c0.034-0.299,0.079-0.704,0.138-1.221
						c0.136-1.099,0.33-2.673,0.579-4.687c0.13-1.02,0.274-2.15,0.431-3.385c0.132-1.242,0.275-2.59,0.429-4.036
						c0.292-2.898,0.693-6.19,0.955-9.847c0.15-1.827,0.307-3.741,0.471-5.734c0.16-1.994,0.25-4.074,0.386-6.225
						c0.299-4.3,0.423-8.904,0.597-13.747c0.221-9.688,0.186-20.347-0.315-31.521c-0.55-11.175-1.515-21.793-2.645-31.419
						c-0.629-4.805-1.184-9.378-1.885-13.632c-0.337-2.128-0.623-4.191-0.969-6.161c-0.35-1.969-0.686-3.86-1.008-5.665
						c-0.605-3.616-1.313-6.856-1.875-9.714c-0.289-1.426-0.558-2.754-0.806-3.978c-0.272-1.215-0.522-2.327-0.747-3.329
						c-0.437-1.982-0.778-3.53-1.017-4.611c-0.107-0.509-0.19-0.908-0.252-1.203c-0.054-0.272-0.077-0.412-0.068-0.414
						c0.009-0.002,0.049,0.134,0.12,0.401c0.074,0.292,0.174,0.686,0.302,1.191c0.261,1.076,0.634,2.618,1.112,4.591
						c0.238,1,0.503,2.109,0.792,3.321c0.261,1.222,0.544,2.548,0.848,3.971c0.59,2.854,1.324,6.092,1.952,9.707
						c0.332,1.805,0.679,3.695,1.042,5.664c0.357,1.971,0.652,4.033,0.999,6.163c0.721,4.255,1.292,8.83,1.935,13.64
						c1.158,9.634,2.138,20.264,2.689,31.453c0.502,11.187,0.523,21.86,0.275,31.558c-0.188,4.848-0.328,9.456-0.646,13.76
						c-0.145,2.152-0.246,4.233-0.416,6.229c-0.176,1.994-0.344,3.909-0.505,5.737c-0.286,3.658-0.714,6.951-1.033,9.847
						c-0.169,1.446-0.327,2.792-0.472,4.034c-0.174,1.234-0.333,2.363-0.477,3.381c-0.291,2.009-0.518,3.579-0.676,4.676
						c-0.08,0.514-0.143,0.916-0.189,1.214C320.841,447.942,320.813,448.081,320.804,448.08z"/>
				</g>
			</g>
			<g>
				<g>
					<path d="M341.943,340.136c-0.005-0.004,0.063-0.015,0.201-0.033c0.16-0.019,0.364-0.044,0.624-0.076
						c0.581-0.065,1.402-0.156,2.457-0.273c2.191-0.233,5.357-0.571,9.363-0.998c8.118-0.84,19.638-2.033,33.354-3.452l0.247-0.026
						l0.007,0.25c0.259,10.097,0.551,21.511,0.861,33.621l0.003,0.106l-0.072,0.078c-1.279,1.374-2.646,2.843-4.025,4.324
						c-5.034,5.402-9.919,10.645-14.564,15.631l-0.128,0.138l-0.168-0.084c-8.942-4.439-17.233-8.554-24.572-12.197l-0.107-0.053
						l-0.011-0.118c-1.069-11.151-1.952-20.375-2.572-26.839c-0.294-3.182-0.526-5.684-0.686-7.417
						c-0.072-0.829-0.129-1.473-0.169-1.934C341.948,340.349,341.943,340.136,341.943,340.136s0.04,0.241,0.092,0.689
						c0.053,0.47,0.126,1.126,0.221,1.97c0.187,1.742,0.457,4.256,0.801,7.454c0.669,6.426,1.625,15.597,2.78,26.684l-0.118-0.17
						c7.349,3.623,15.652,7.715,24.606,12.129l-0.296,0.054c4.642-4.99,9.523-10.236,14.553-15.643
						c1.379-1.481,2.747-2.949,4.025-4.323l-0.069,0.183c-0.289-12.111-0.562-23.525-0.803-33.623l0.254,0.224
						c-13.665,1.319-25.141,2.426-33.229,3.206c-4.033,0.377-7.22,0.675-9.426,0.881c-1.077,0.096-1.914,0.171-2.508,0.223
						c-0.271,0.022-0.484,0.039-0.651,0.052C342.025,340.136,341.947,340.139,341.943,340.136z"/>
				</g>
			</g>
			<g>
				<g>
					<path d="M388.253,347.18c0.005,0.036-0.612,0.151-1.731,0.33c-1.119,0.182-2.744,0.409-4.754,0.666
						c-4.02,0.518-9.589,1.107-15.742,1.693c-6.112,0.598-11.641,1.139-15.752,1.541c-1.949,0.205-3.558,0.374-4.77,0.501
						c-1.127,0.117-1.752,0.164-1.757,0.129c-0.005-0.036,0.611-0.151,1.731-0.33c1.119-0.182,2.743-0.409,4.754-0.666
						c4.02-0.518,9.589-1.107,15.744-1.693c6.11-0.598,11.638-1.138,15.749-1.541c1.949-0.205,3.558-0.374,4.77-0.501
						C387.622,347.192,388.248,347.144,388.253,347.18z"/>
				</g>
			</g>
			<g style="opacity:0.3;">
				<g>
					<path d="M397.91,386.509c0.56,6.811,1.12,13.623,1.68,20.434c3.707-17.501,9.536-36.31,8.631-54.177
						c-0.899-17.751-2.587-34.943-12.647-51.111c0,0,6.823,17.087,5.903,37.991C400.556,360.551,397.91,386.509,397.91,386.509z"/>
				</g>
			</g>
			<g>
				<path style="fill:#FF725E;" d="M169.882,348.481c-0.67-1.154-1.441-2.394-2.703-2.829c-1.404-0.484-2.917,0.193-4.246,0.855
					c-12.096,6.021-24.192,12.044-36.288,18.067c-2.382,1.186-4.971,2.596-5.873,5.099c-1.155,3.201,0.951,6.575,2.954,9.327
					c3.345,4.595,7.342,9.589,12.988,10.239l31.201-21.4c3.815-0.56,6.187-4.806,6.039-8.659
					C173.807,355.325,171.818,351.816,169.882,348.481z"/>
			</g>
			<g>
				<g>
					<path d="M173.821,361.556c0.012,0.013-0.098,0.134-0.318,0.35c-0.269,0.254-0.592,0.561-0.982,0.929
						c-0.857,0.802-2.127,1.93-3.722,3.294c-3.188,2.73-7.722,6.357-12.955,10.056c-5.238,3.695-10.174,6.755-13.813,8.845
						c-1.819,1.047-3.307,1.866-4.35,2.405c-0.477,0.243-0.875,0.446-1.204,0.614c-0.278,0.135-0.428,0.199-0.437,0.183
						c-0.009-0.016,0.125-0.11,0.386-0.275c0.316-0.191,0.697-0.422,1.156-0.699c1.078-0.644,2.516-1.503,4.261-2.546
						c3.586-2.168,8.476-5.268,13.701-8.954c5.219-3.689,9.777-7.26,13.02-9.913c1.566-1.295,2.857-2.363,3.825-3.164
						c0.414-0.339,0.759-0.621,1.046-0.855C173.676,361.637,173.809,361.543,173.821,361.556z"/>
				</g>
			</g>
			<g style="opacity:0.3;">
				<g>
					<path d="M345.152,251.667c-4.271,14.187-10.253,30.221-15.299,43.963c-4.305-3.654-10.324-8.483-14.63-12.137
						c3.704,7.352,8.165,14.323,13.289,20.767c0.593,0.746,1.396,1.565,2.333,1.385c0.886-0.17,1.342-1.135,1.661-1.979
						c2.625-6.942,5.251-13.884,7.876-20.825C344.057,273.122,347.615,261.764,345.152,251.667z"/>
				</g>
			</g>
		</g>
		<g>
			<g>
				<g>
					<g>
						<g>
							<path style="fill:#263238;" d="M277.649,97.4c12.964-3.743,25.16,0.032,37.151,6.22
								c11.991,6.189,21.658,16.485,27.921,28.438c6.596,12.589,9.515,27.265,7.127,41.275
								c-2.388,14.011-10.304,27.206-22.172,35.027c-16.206,10.679-38.541,10.123-55.241,0.233
								c-16.7-9.89-27.671-28.126-30.59-47.314c-2.011-13.219-0.375-27.161,5.796-39.023
								C253.813,110.394,264.721,100.818,277.649,97.4"/>
						</g>
					</g>
				</g>
				<g>
					<g>
						<g>
							<g>
								<g>
									<path style="fill:#263238;" d="M320.329,138.095c-2.506-4.839-2.395-10.569-3.767-15.842
										c-3.021-11.612-13.601-19.998-25.12-23.355c-10.716-3.122-23.106-0.774-34.98,4.605c-8.14,3.687-15.552,9.35-20.408,16.851
										c-6.444,9.955-7.622,23.121-3.046,34.062l59.39-15.629c6.183,4.037,12.51,8.139,19.662,9.97
										c2.099,0.538,4.329,0.869,6.417,0.291c2.088-0.578,3.991-2.257,4.258-4.407
										C323.026,142.291,321.417,140.197,320.329,138.095z"/>
								</g>
							</g>
						</g>
					</g>
					<g>
						<g>
							<g>
								<g>
									<path style="fill:#FFBF9D;" d="M334.498,243.401l-15.332-107.825c-0.676-5.1-2.986-10.292-8.125-10.055l-53.984-5.202
										c-16.915,0.781-24.854,22.967-23.356,39.834c1.664,18.739,4.435,41.551,8.749,55.064
										c8.674,27.171,30.557,27.457,30.557,27.457c-0.008-0.095,1.331,5.398,2.995,15.499l34.999,23.275L334.498,243.401z"/>
								</g>
							</g>
						</g>
					</g>
					<g>
						<g>
							<g>
								<g>
									<g>
										<g>
											<g>
												<g>
													<g>
														<g>
															<g>
																<g>
																	<g>
																		<g>
																			<g>
																				<g>
																					<g>
																						<g>
																							<g>
																								<g>
																									<path style="fill:#263238;" d="M246.732,180.657c0.221,1.896,2.01,3.273,3.994,3.078
																										c1.98-0.195,3.411-1.885,3.19-3.782c-0.222-1.896-2.01-3.274-3.99-3.08
																										C247.941,177.067,246.51,178.761,246.732,180.657z"/>
																								</g>
																							</g>
																						</g>
																					</g>
																				</g>
																			</g>
																		</g>
																	</g>
																</g>
															</g>
														</g>
													</g>
												</g>
											</g>
										</g>
									</g>
								</g>
								<g>
									<g>
										<g>
											<g>
												<g>
													<g>
														<g>
															<g>
																<g>
																	<g>
																		<g>
																			<g>
																				<g>
																					<g>
																						<g>
																							<g>
																								<g>
																									<g>
																										<path style="fill:#263238;" d="M240.431,171.213c0.513,0.398,2.914-2.017,6.758-2.594
																											c3.832-0.631,6.954,0.916,7.299,0.381c0.174-0.24-0.407-1.011-1.77-1.718
																											c-1.345-0.705-3.54-1.256-5.932-0.881c-2.392,0.379-4.271,1.568-5.291,2.646
																											C240.453,170.135,240.181,171.038,240.431,171.213z"/>
																									</g>
																								</g>
																							</g>
																						</g>
																					</g>
																				</g>
																			</g>
																		</g>
																	</g>
																</g>
															</g>
														</g>
													</g>
												</g>
											</g>
										</g>
									</g>
								</g>
							</g>
							<g>
								<g>
									<g>
										<g>
											<g>
												<g>
													<g>
														<g>
															<g>
																<g>
																	<g>
																		<g>
																			<g>
																				<g>
																					<g>
																						<g>
																							<g>
																								<g>
																									<path style="fill:#263238;" d="M282.259,174.883c0.22,1.896,2.009,3.272,3.993,3.077
																										c1.98-0.195,3.411-1.885,3.19-3.782c-0.221-1.896-2.01-3.275-3.99-3.08
																										C283.467,171.292,282.037,172.987,282.259,174.883z"/>
																								</g>
																							</g>
																						</g>
																					</g>
																				</g>
																			</g>
																		</g>
																	</g>
																</g>
															</g>
														</g>
													</g>
												</g>
											</g>
										</g>
									</g>
								</g>
								<g>
									<g>
										<g>
											<g>
												<g>
													<g>
														<g>
															<g>
																<g>
																	<g>
																		<g>
																			<g>
																				<g>
																					<g>
																						<g>
																							<g>
																								<g>
																									<g>
																										<path style="fill:#263238;" d="M276.978,166.124c0.516,0.398,2.918-2.017,6.76-2.593
																											c3.831-0.632,6.954,0.915,7.299,0.381c0.172-0.24-0.402-1.012-1.772-1.718
																											c-1.345-0.707-3.539-1.258-5.931-0.882c-2.391,0.379-4.27,1.568-5.291,2.647
																											C277.004,165.045,276.729,165.949,276.978,166.124z"/>
																									</g>
																								</g>
																							</g>
																						</g>
																					</g>
																				</g>
																			</g>
																		</g>
																	</g>
																</g>
															</g>
														</g>
													</g>
												</g>
											</g>
										</g>
									</g>
								</g>
							</g>
							<g>
								<g>
									<g>
										<g>
											<g>
												<g>
													<g>
														<g>
															<g>
																<g>
																	<g>
																		<g>
																			<g>
																				<g>
																					<g>
																						<g>
																							<g>
																								<g>
																									<path style="fill:#263238;" d="M268.719,196.792c-0.015-0.221-2.467-0.269-6.413-0.173
																										c-0.997,0.048-1.956-0.005-2.223-0.649c-0.339-0.675-0.09-1.794,0.211-3.009
																										c0.56-2.516,1.145-5.153,1.762-7.916c2.405-11.254,3.987-20.448,3.533-20.54
																										c-0.454-0.094-2.773,8.954-5.178,20.208c-0.569,2.771-1.115,5.414-1.632,7.942
																										c-0.202,1.171-0.647,2.535,0.079,3.929c0.377,0.693,1.178,1.115,1.833,1.188
																										c0.658,0.096,1.212,0.022,1.702-0.023C266.319,197.365,268.738,197.013,268.719,196.792z"/>
																								</g>
																							</g>
																						</g>
																					</g>
																				</g>
																			</g>
																		</g>
																	</g>
																</g>
															</g>
														</g>
													</g>
												</g>
											</g>
										</g>
									</g>
								</g>
							</g>
							<g>
								<g>
									<g>
										<g>
											<g>
												<g>
													<g>
														<g>
															<g>
																<g>
																	<g>
																		<g>
																			<g>
																				<g>
																					<g>
																						<g>
																							<g>
																								<path style="fill:#FF9A6C;" d="M273.008,242.674c0,0,18.918-1.652,35.775-15.642
																									c0,0-8.73,21.845-34.026,24.045L273.008,242.674z"/>
																							</g>
																						</g>
																					</g>
																				</g>
																			</g>
																		</g>
																	</g>
																</g>
															</g>
														</g>
													</g>
												</g>
											</g>
										</g>
									</g>
								</g>
							</g>
							<g>
								<g>
									<g>
										<g>
											<g>
												<g>
													<g>
														<g>
															<g>
																<g>
																	<g>
																		<g>
																			<g>
																				<g>
																					<g>
																						<g>
																							<g>
																								<path style="fill:#FF9A6C;" d="M271.759,205.807c1.103-2.038,3.371-3.412,5.815-3.52
																									c1.695-0.075,3.503,0.472,4.723,1.676c1.221,1.202,1.727,3.099,1.004,4.534
																									c-0.814,1.617-2.93,2.284-4.843,2.043c-1.914-0.242-3.676-1.208-5.359-2.181
																									c-0.465-0.27-0.942-0.552-1.271-0.969c-0.329-0.416-0.475-1.005-0.213-1.431"/>
																							</g>
																						</g>
																					</g>
																				</g>
																			</g>
																		</g>
																	</g>
																</g>
															</g>
														</g>
													</g>
												</g>
											</g>
										</g>
									</g>
								</g>
							</g>
							<g>
								<g>
									<g>
										<g>
											<g>
												<g>
													<g>
														<g>
															<g>
																<g>
																	<g>
																		<g>
																			<g>
																				<g>
																					<g>
																						<g>
																							<g>
																								<g>
																									<path style="fill:#263238;" d="M280.435,197.724c-0.63,0.059-0.001,4.231-3.12,7.738
																										c-3.109,3.515-7.628,3.725-7.571,4.313c-0.019,0.271,1.114,0.66,2.998,0.424
																										c1.851-0.218,4.449-1.219,6.357-3.365c1.902-2.148,2.468-4.714,2.349-6.447
																										C281.34,198.619,280.717,197.657,280.435,197.724z"/>
																								</g>
																							</g>
																						</g>
																					</g>
																				</g>
																			</g>
																		</g>
																	</g>
																</g>
															</g>
														</g>
													</g>
												</g>
											</g>
										</g>
									</g>
								</g>
							</g>
						</g>
					</g>
					<g>
						<g>
							<g>
								<g>
									<g>
										<g>
											<g>
												<g>
													<g>
														<g>
															<g>
																<g>
																	<g>
																		<g>
																			<g>
																				<g>
																					<path style="fill:#263238;" d="M275.898,154.642c0.538,0.987,4.3-0.094,8.89-0.239
																						c4.591-0.237,8.427,0.527,8.883-0.501c0.198-0.489-0.586-1.375-2.21-2.162
																						c-1.612-0.788-4.083-1.393-6.836-1.281c-2.752,0.117-5.165,0.925-6.705,1.844
																						C276.367,153.223,275.659,154.171,275.898,154.642z"/>
																				</g>
																			</g>
																		</g>
																	</g>
																</g>
															</g>
														</g>
													</g>
												</g>
											</g>
										</g>
									</g>
								</g>
							</g>
						</g>
					</g>
					<g>
						<g>
							<g>
								<g>
									<g>
										<g>
											<g>
												<g>
													<g>
														<g>
															<g>
																<g>
																	<g>
																		<g>
																			<g>
																				<g>
																					<path style="fill:#263238;" d="M238.98,154.238c0.809,0.769,3.318-0.541,6.495-1.07
																						c3.158-0.64,5.969-0.311,6.45-1.319c0.205-0.485-0.354-1.294-1.657-1.941
																						c-1.287-0.646-3.331-1.022-5.509-0.622c-2.177,0.404-3.951,1.484-4.922,2.547
																						C238.849,152.902,238.617,153.857,238.98,154.238z"/>
																				</g>
																			</g>
																		</g>
																	</g>
																</g>
															</g>
														</g>
													</g>
												</g>
											</g>
										</g>
									</g>
								</g>
							</g>
						</g>
					</g>
					<g>
						<g>
							<g>
								<g>
									<path style="fill:#263238;" d="M329.071,128.859c-7.282-15.435-33.622-34.608-50.34-31.178l-24.793,19.758
										c2.856,8.966,11.013,16.015,20.298,17.542c4.958,0.815,10.75,0.448,14.129,4.168c3.452,3.798,2.574,10.116,5.842,14.072
										c4.53,5.483,14.694,3.838,18.357,9.934c1.6,2.664,1.412,6.126,3.059,8.76c2.195,3.51,12.286,6.985,16.032,5.223
										c3.746-1.762,2.869-8.424,3.682-12.085c1.39-6.255,0.077-9.227-1.087-12.462
										C331.496,144.93,332.545,136.224,329.071,128.859z"/>
								</g>
							</g>
						</g>
					</g>
					<g>
						<g>
							<g>
								<g>
									<g>
										<g>
											<g>
												<path style="fill:#FFBF9D;" d="M320.554,181.976c-0.311-2.075,1.339-7.329,3.338-7.962
													c5.339-1.688,15.263-2.753,17.476,11.122c3.024,18.967-16.642,18.091-16.763,17.552
													C324.511,202.267,321.63,189.139,320.554,181.976z"/>
											</g>
										</g>
									</g>
								</g>
							</g>
						</g>
					</g>
					<g>
						<g>
							<g>
								<g>
									<g>
										<g>
											<g>
												<g>
													<path style="fill:#FF9A6C;" d="M329.253,194.579c0.074-0.074,0.368,0.178,0.966,0.346
														c0.585,0.162,1.549,0.185,2.478-0.343c1.887-1.055,3.066-4.505,2.614-7.938c-0.227-1.734-0.85-3.32-1.679-4.584
														c-0.8-1.295-1.852-2.122-2.89-2.139c-1.04-0.073-1.659,0.645-1.806,1.215c-0.17,0.572,0.012,0.931-0.084,0.979
														c-0.045,0.057-0.457-0.252-0.429-1.059c0.019-0.389,0.169-0.873,0.557-1.308c0.396-0.443,1.035-0.737,1.751-0.774
														c1.479-0.131,3.01,1.004,3.92,2.391c0.992,1.381,1.734,3.157,1.988,5.104c0.488,3.841-0.898,7.729-3.514,8.959
														c-1.278,0.56-2.456,0.336-3.102-0.02C329.361,195.032,329.193,194.623,329.253,194.579z"/>
												</g>
											</g>
										</g>
									</g>
								</g>
							</g>
						</g>
					</g>
				</g>
				<g>
					<g>
						<g>
							<path style="fill:#263238;" d="M258.825,111.047c-0.876,7.962-11.548,19.25-16.042,25.88
								c-8.576,12.649-10.09,16.699-7.076,42.465c-5.673-8.374-10.233-16.694-11.012-26.779
								c-0.779-10.085,1.782-20.567,7.947-28.586C238.807,116.008,248.715,110.732,258.825,111.047"/>
						</g>
					</g>
				</g>
			</g>
			<g>
				<path style="fill:#263238;" d="M304.13,83.923c4.03-4.416,9.781-7.287,15.78-8.784c8.555-2.135,17.936-1.558,25.723,2.16
					c7.787,3.718,13.797,10.676,15.4,18.693c1.603,8.017-1.488,16.911-8.283,22.237c4.323,4.24,9.807,7.452,15.812,9.261
					c-1.622,2.428-4.615,3.852-7.631,4.363c-3.016,0.51-6.1,0.225-9.135-0.062c1.954,3.009,5.114,5.315,8.736,6.374
					c-4.875,1.253-10.093,0.859-14.892-0.481c-4.8-1.34-9.231-3.59-13.466-6.05c-14.629-8.498-22.697-15.933-32.581-29.049
					C298.266,97.005,300.1,88.339,304.13,83.923z"/>
			</g>
			<g>
				<g>
					<path style="fill:#263238;" d="M335.665,123.995c-10.734-15.681-24.402-24.079-36.776-26.686"/>
				</g>
				<g>
					<g>
						<path style="fill:#455A64;" d="M298.889,97.31c-0.008,0.038,0.618,0.226,1.752,0.531c1.13,0.32,2.758,0.812,4.718,1.557
							c3.922,1.468,9.146,4.093,14.25,7.958c5.104,3.867,9.133,8.088,11.816,11.313c1.323,1.631,2.395,2.952,3.085,3.904
							c0.712,0.936,1.122,1.444,1.155,1.422c0.032-0.022-0.316-0.572-0.976-1.55c-0.637-0.994-1.664-2.358-2.954-4.03
							c-2.617-3.305-6.634-7.609-11.785-11.511c-5.152-3.901-10.464-6.5-14.453-7.882c-1.994-0.703-3.651-1.139-4.802-1.395
							C299.539,97.386,298.897,97.271,298.889,97.31z"/>
					</g>
				</g>
			</g>
			<g>
				<g>
					<path style="fill:#455A64;" d="M348.473,137.369c-0.004-0.009-0.087,0.018-0.245,0.078c-0.188,0.076-0.415,0.167-0.694,0.279
						c-0.601,0.263-1.508,0.604-2.682,1.016c-2.355,0.795-5.861,1.727-10.297,2.101c-4.429,0.384-9.768,0.159-15.54-0.977
						c-5.779-1.115-11.957-3.137-18.259-5.686c-6.298-2.573-12.235-5.211-17.526-7.804c-5.284-2.609-9.885-5.279-13.531-7.836
						c-3.66-2.54-6.385-4.917-8.181-6.642c-0.915-0.847-1.574-1.556-2.035-2.025c-0.212-0.212-0.386-0.386-0.529-0.529
						c-0.122-0.117-0.188-0.174-0.195-0.167c-0.007,0.007,0.044,0.076,0.152,0.206c0.132,0.153,0.292,0.34,0.488,0.567
						c0.434,0.494,1.07,1.23,1.965,2.105c1.755,1.78,4.455,4.216,8.105,6.812c3.636,2.613,8.24,5.333,13.529,7.976
						c5.299,2.63,11.229,5.282,17.547,7.863c6.322,2.557,12.544,4.577,18.372,5.673c5.823,1.117,11.213,1.302,15.674,0.864
						c4.47-0.429,7.99-1.429,10.336-2.293c1.17-0.446,2.067-0.821,2.655-1.119c0.27-0.133,0.49-0.242,0.672-0.331
						C348.403,137.422,348.477,137.378,348.473,137.369z"/>
				</g>
			</g>
			<g>
				<g>
					<path style="fill:#455A64;" d="M291.808,231.54l-1.824-3.561c0.127-0.064,12.683-6.514,17.513-10.572
						c11.379-9.56,21.847-24.833,21.951-24.986l3.305,2.252c-0.439,0.644-10.875,15.876-22.684,25.796
						C304.894,224.819,292.339,231.267,291.808,231.54z"/>
				</g>
				<g>
					<path style="fill:#263238;" d="M301.157,220.493c0,0-17.176,7.653-17.176,9.354c0,1.701,2.721,5.102,4.762,4.932
						c2.041-0.17,7.939-3.488,8.96-4.848c1.02-1.361,2.939-4.856,4.98-6.556L301.157,220.493z"/>
				</g>
				<g>
					<g>
						<path style="fill:#455A64;" d="M332.626,169.028l-3.996-0.188c0.008-0.167,0.702-16.971-5.864-33.882
							c-8.679-22.353-25.36-34.357-49.582-35.681c-1.99-0.116-4.198,0.05-6.586,0.45l1.751-1.651c0.849-0.8,1.835-1.441,2.91-1.893
							l0,0c1.473-0.618,3.078-0.86,4.67-0.722c30.585,2.647,44.398,22.086,50.612,38.167
							C333.376,151.316,332.659,168.313,332.626,169.028z"/>
					</g>
				</g>
				<g>
					<g>
						<ellipse style="fill:#455A64;" cx="330.628" cy="187.149" rx="12.674" ry="18.216"/>
					</g>
					<g>
						<g>
							<path style="fill:#263238;" d="M343.302,187.149c-0.009,0-0.021-0.086-0.035-0.252c-0.014-0.197-0.031-0.44-0.052-0.739
								c-0.019-0.65-0.128-1.604-0.299-2.823c-0.422-2.393-1.254-6.007-3.909-9.526c-0.643-0.886-1.471-1.687-2.38-2.449
								c-0.955-0.693-2-1.389-3.228-1.747c-1.209-0.368-2.537-0.561-3.88-0.37c-1.337,0.191-2.663,0.688-3.874,1.448
								c-2.41,1.559-4.317,4.076-5.54,6.961c-1.267,2.883-1.854,6.157-1.89,9.495c0.036,3.338,0.623,6.614,1.89,9.498
								c1.222,2.886,3.13,5.404,5.54,6.963c1.212,0.761,2.537,1.258,3.875,1.448c1.344,0.191,2.671-0.002,3.88-0.371
								c1.228-0.359,2.272-1.054,3.228-1.748c0.909-0.762,1.737-1.563,2.38-2.449c2.655-3.519,3.486-7.132,3.909-9.525
								c0.171-1.22,0.28-2.173,0.299-2.823c0.021-0.299,0.038-0.542,0.052-0.739C343.281,187.235,343.293,187.149,343.302,187.149
								s0.015,0.085,0.018,0.252c0,0.198,0,0.442,0,0.742c0.015,0.654-0.061,1.615-0.203,2.849
								c-0.366,2.422-1.142,6.091-3.817,9.719c-0.649,0.913-1.49,1.746-2.423,2.54c-0.98,0.727-2.061,1.457-3.343,1.844
								c-1.263,0.396-2.659,0.607-4.073,0.415c-1.409-0.191-2.805-0.708-4.074-1.497c-2.524-1.617-4.492-4.212-5.752-7.165
								c-1.304-2.954-1.906-6.296-1.942-9.701c0.037-3.404,0.639-6.745,1.943-9.697c1.26-2.952,3.227-5.547,5.751-7.164
								c1.268-0.789,2.664-1.306,4.073-1.497c1.415-0.192,2.81,0.019,4.073,0.414c1.282,0.387,2.362,1.116,3.343,1.843
								c0.933,0.794,1.774,1.627,2.423,2.54c2.675,3.628,3.451,7.297,3.817,9.719c0.142,1.234,0.218,2.195,0.203,2.849
								c0,0.3,0,0.544,0,0.742C343.317,187.064,343.311,187.149,343.302,187.149z"/>
						</g>
					</g>
				</g>
				<g>
					<g>
						<ellipse style="fill:#455A64;" cx="332.579" cy="186.125" rx="8.068" ry="11.596"/>
					</g>
					<g>
						<g>
							<path style="fill:#263238;" d="M340.646,186.125c-0.059,0.002-0.039-0.875-0.282-2.423c-0.279-1.518-0.819-3.809-2.505-6.028
								c-0.837-1.088-2.01-2.141-3.541-2.637c-0.76-0.229-1.593-0.349-2.435-0.228c-0.839,0.121-1.669,0.434-2.43,0.913
								c-1.514,0.982-2.717,2.57-3.488,4.395c-0.799,1.823-1.17,3.895-1.194,6.007c0.023,2.113,0.394,4.186,1.193,6.009
								c0.771,1.825,1.974,3.414,3.488,4.395c0.761,0.479,1.592,0.792,2.431,0.913c0.842,0.121,1.675,0.001,2.435-0.228
								c1.531-0.497,2.703-1.55,3.541-2.638c1.686-2.22,2.226-4.51,2.505-6.028C340.607,187,340.588,186.124,340.646,186.125
								c0.018,0,0.028,0.218,0.03,0.634c0.016,0.417-0.027,1.03-0.112,1.818c-0.223,1.547-0.707,3.892-2.413,6.222
								c-0.849,1.141-2.059,2.27-3.699,2.824c-0.814,0.257-1.715,0.395-2.628,0.272c-0.91-0.122-1.811-0.454-2.629-0.962
								c-1.628-1.04-2.891-2.706-3.699-4.598c-0.837-1.893-1.223-4.033-1.246-6.212c0.024-2.179,0.41-4.318,1.246-6.21
								c0.809-1.892,2.072-3.557,3.699-4.597c0.818-0.508,1.719-0.84,2.629-0.962c0.913-0.123,1.814,0.015,2.628,0.272
								c1.64,0.554,2.849,1.683,3.699,2.824c1.706,2.329,2.19,4.675,2.413,6.222c0.085,0.788,0.128,1.401,0.112,1.818
								C340.674,185.908,340.664,186.125,340.646,186.125z"/>
						</g>
					</g>
				</g>
				<g>
					<g>
						<ellipse style="fill:#455A64;" cx="333.136" cy="186.125" rx="5.804" ry="8.342"/>
					</g>
					<g>
						<g>
							<path style="fill:#263238;" d="M338.939,186.125c-0.052,0.001-0.048-0.629-0.231-1.738c-0.209-1.088-0.605-2.728-1.815-4.309
								c-0.601-0.775-1.439-1.522-2.525-1.871c-1.076-0.363-2.372-0.209-3.445,0.492c-2.171,1.434-3.326,4.433-3.331,7.426
								c0.004,2.993,1.159,5.993,3.331,7.428c1.073,0.702,2.369,0.855,3.445,0.492c1.086-0.349,1.924-1.096,2.525-1.871
								c1.21-1.582,1.606-3.221,1.815-4.309C338.892,186.755,338.887,186.124,338.939,186.125c0.018,0,0.03,0.156,0.036,0.457
								c0.016,0.3-0.01,0.743-0.067,1.311c-0.152,1.117-0.493,2.812-1.723,4.503c-0.613,0.828-1.488,1.651-2.683,2.058
								c-0.593,0.189-1.251,0.29-1.918,0.202c-0.665-0.088-1.323-0.33-1.919-0.699c-1.187-0.756-2.104-1.965-2.691-3.336
								c-0.607-1.371-0.887-2.92-0.904-4.497c0.017-1.576,0.297-3.125,0.904-4.496c0.587-1.37,1.504-2.579,2.691-3.335
								c0.596-0.369,1.255-0.611,1.919-0.699c0.667-0.088,1.325,0.013,1.917,0.202c1.195,0.407,2.07,1.23,2.683,2.058
								c1.23,1.691,1.57,3.386,1.723,4.503c0.057,0.569,0.083,1.011,0.067,1.312C338.969,185.969,338.957,186.125,338.939,186.125z"
								/>
						</g>
					</g>
				</g>
			</g>
		</g>
	</g>
</g>
</svg>
